<?xml version="1.0" encoding="utf-8"?>
<!-- Generator: Adobe Illustrator 19.2.0, SVG Export Plug-In . SVG Version: 6.00 Build 0)  -->
<svg version="1.1" id="Layer_1" xmlns="http://www.w3.org/2000/svg" xmlns:xlink="http://www.w3.org/1999/xlink" x="0px" y="0px"
	 viewBox="0 0 182 182" style="enable-background:new 0 0 182 182;" xml:space="preserve">
<style type="text/css">
	.st0{fill:#FF4828;}
	.st1{fill:#FFFFFF;}
</style>
<title>Logo</title>
<g>
	<path class="st0" d="M91.1,84.3c-2.3,0-4.6,0.6-6.2,1.7l1.4,2.9c1-0.8,2.6-1.3,4.1-1.3c2.2,0,3.3,1,3.3,2.8h-3.3
		c-4.3,0-6.1,1.8-6.1,4.3c0,2.4,2,4.3,5.3,4.3c2.1,0,3.6-0.7,4.4-2v1.8h3.9H98v-8.2C98,86.3,95.5,84.3,91.1,84.3z M93.8,94.3
		c-0.5,1.3-1.7,1.9-3.1,1.9s-2.3-0.7-2.3-1.7s0.6-1.7,2.6-1.7h2.8V94.3z"/>
	<rect x="42.4" y="84.5" class="st0" width="4.1" height="14.3"/>
	<path class="st0" d="M73.2,80.2h-8v18.5h4.3v-5.1h3.7c5,0,8.1-2.5,8.1-6.7C81.3,82.8,78.2,80.2,73.2,80.2z M73,90.2h-3.5v-6.5H73
		c2.6,0,3.9,1.2,4,3.3C77,89,75.6,90.2,73,90.2z"/>
	<path class="st0" d="M57.7,95.7c-1.1,0-1.8-0.7-1.8-1.9V88h3.6v-3.2h-3.6v-3.5h-4.1v3.5h-2.2V88h2.2v5.9c0,3.4,1.9,5.1,5.3,5.1
		c1.3,0,2.6-0.3,3.4-0.9l-1.1-2.9C58.9,95.5,58.3,95.7,57.7,95.7z"/>
	<path class="st0" d="M109.1,95.7c-1.1,0-1.8-0.7-1.8-1.9V88h3.6v-3.2h-3.6v-3.5h-4.1v3.5H101V88h2.2v5.9c0,3.4,1.9,5.1,5.3,5.1
		c1.2,0,2.5-0.3,3.4-0.9l-1.1-2.9C110.3,95.5,109.7,95.7,109.1,95.7z"/>
	<path class="st0" d="M135.2,84.2c-4.6,0-7.9,3.1-7.9,7.4c0,4.3,3.4,7.4,7.9,7.4s7.8-3.1,7.8-7.4C143,87.3,139.7,84.2,135.2,84.2z
		 M135.2,95.7c-2.1,0-3.7-1.5-3.7-4s1.6-4,3.7-4c2.1,0,3.6,1.5,3.6,4S137.3,95.7,135.2,95.7z"/>
	<path class="st0" d="M119.9,86.4v-1.9h-4v14.2h4.1V92c0-2.8,1.5-4,3.8-4c0.3,0,0.6,0.1,0.9,0.1h0.1v-3.8
		C122.6,84.3,120.9,85,119.9,86.4z"/>
	<path class="st0" d="M34.9,89.1c1.5-0.8,2.5-2.2,2.5-4.1c0-2.9-2.4-4.8-7-4.8h-9.1v18.6h9.6c4.9,0,7.5-1.9,7.4-5.1
		C38.3,91.4,37,89.8,34.9,89.1z M25.6,83.4h4.3c2.1,0,3.2,0.7,3.2,2.2c0,1.4-1.1,2.2-3.2,2.2h-4.3V83.4z M30.6,95.5h-5v-4.6h5
		c2.2,0,3.4,0.8,3.4,2.3C34,94.8,32.8,95.5,30.6,95.5z"/>
	<path class="st0" d="M44.4,77.9c-1.6,0-2.6,1-2.6,2.3c0,1.3,1.1,2.3,2.6,2.3s2.6-1,2.6-2.4C47,78.9,46,77.9,44.4,77.9z"/>
	<path class="st0" d="M150.8,84.5h-4v14.4h4.1v-7.1c0-2.7,1.4-3.9,3.4-3.9c1.8,0,2.9,1.1,2.9,3.4v7.5h4.2v-8.2
		c0-4.3-2.5-6.3-5.9-6.3c-1.9,0-3.6,0.7-4.7,1.9V84.5z"/>
	<path class="st1" d="M73,83.7h-3.5v6.5H73c2.6,0,4-1.2,4-3.2C76.9,84.9,75.6,83.7,73,83.7z"/>
	<path class="st1" d="M135.2,87.7c-2.1,0-3.7,1.5-3.7,4s1.6,4,3.7,4s3.6-1.5,3.6-4S137.3,87.7,135.2,87.7z"/>
	<path class="st1" d="M88.4,94.5c0,1,0.9,1.7,2.3,1.7s2.6-0.6,3.1-1.9v-1.5H91C89,92.8,88.4,93.5,88.4,94.5z"/>
	<path class="st1" d="M33.1,85.6c0-1.5-1.1-2.2-3.2-2.2h-4.3v4.4h4.3C32,87.8,33.1,87,33.1,85.6z"/>
	<path class="st1" d="M91,0C40.7,0,0,40.7,0,91s40.7,91,91,91s91-40.7,91-91S141.3,0,91,0z M30.9,98.8h-9.6V80.2h9.1
		c4.6,0,7,1.9,7,4.8c0,1.9-1,3.3-2.5,4.1c2.1,0.7,3.4,2.3,3.4,4.6C38.4,96.9,35.8,98.8,30.9,98.8z M46.5,98.8h-4.1V84.5h4.1V98.8z
		 M44.4,82.5c-1.5,0-2.6-1-2.6-2.3c0-1.3,1-2.3,2.6-2.3c1.6,0,2.6,1,2.6,2.2C47,81.5,45.9,82.5,44.4,82.5z M57.1,99
		c-3.4,0-5.3-1.7-5.3-5.1V88h-2.2v-3.2h2.2v-3.5h4.1v3.5h3.6V88h-3.6v5.8c0,1.2,0.7,1.9,1.8,1.9c0.6,0,1.2-0.2,1.7-0.5l1.1,2.9
		C59.7,98.7,58.4,99,57.1,99z M73.2,93.6h-3.7v5.1h-4.3V80.2h8c5,0,8.1,2.6,8.1,6.7C81.3,91.1,78.2,93.6,73.2,93.6z M98,98.8
		L98,98.8h-4V97c-0.8,1.3-2.3,2-4.4,2c-3.3,0-5.3-1.9-5.3-4.3c0-2.5,1.8-4.3,6.1-4.3h3.3c0-1.8-1.1-2.8-3.3-2.8
		c-1.5,0-3.1,0.5-4.1,1.3L84.9,86c1.6-1.1,3.9-1.7,6.2-1.7c4.4,0,6.9,2,6.9,6.3V98.8z M108.5,99c-3.4,0-5.3-1.7-5.3-5.1V88H101v-3.2
		h2.2v-3.5h4.1v3.5h3.6V88h-3.6v5.8c0,1.2,0.7,1.9,1.8,1.9c0.6,0,1.2-0.2,1.7-0.5l1.1,2.9C111,98.7,109.7,99,108.5,99z M124.8,88.1
		L124.8,88.1c-0.4,0-0.7-0.1-1-0.1c-2.3,0-3.8,1.2-3.8,4v6.7h-4.1V84.5h4v1.9c1-1.4,2.7-2.1,4.9-2.1V88.1z M135.2,99
		c-4.5,0-7.9-3.1-7.9-7.4c0-4.3,3.3-7.4,7.9-7.4c4.5,0,7.8,3.1,7.8,7.4C143,95.9,139.7,99,135.2,99z M161.4,90.6v8.2h-4.2v-7.5
		c0-2.3-1.1-3.4-2.9-3.4c-2,0-3.4,1.2-3.4,3.9v7.1h-4.1V84.5h4v1.7c1.1-1.2,2.8-1.9,4.7-1.9C158.9,84.3,161.4,86.3,161.4,90.6z"/>
	<path class="st1" d="M30.6,90.9h-5v4.6h5c2.2,0,3.4-0.7,3.4-2.3C34,91.7,32.8,90.9,30.6,90.9z"/>
</g>
</svg>
