<svg id="Layer_1" data-name="Layer 1" xmlns="http://www.w3.org/2000/svg" viewBox="0 0 182 182"><defs><style>.cls-1{fill:#ff4828;}.cls-2{fill:#fff;}</style></defs><title>Arrow</title><circle class="cls-1" cx="91" cy="91" r="91"/><path class="cls-2" d="M131.43,94.32c-8.23,0-69.78-.11-84.73-0.13a3.43,3.43,0,0,1-3.42-3.49V90.12a3.43,3.43,0,0,1,3.42-3.38l83.85-.1,0.71-1.05c-4.14-3.9-8.33-7.75-12.42-11.7-3.67-3.55-7.22-7.25-10.87-10.82-2.17-2.13-3.41-4.47-.82-6.9,2.35-2.21,4.37-.68,6.24,1.2Q128.14,72.19,143,86.92c2.38,2.36,2.6,4.49.2,6.89q-15.06,15-30.08,30.11c-1.84,1.85-3.94,2.78-6,.77s-1.46-4.38.52-6.36l20.6-20.61C129.06,96.83,129.91,95.91,131.43,94.32Z"/></svg>